<svg xmlns="http://www.w3.org/2000/svg"><symbol id="mecha-stilts" viewBox="0 0 256 256"><path d="M90.4 127.8H67.9c6.5-25.4 29-45 55.9-46.7zm5.2 0l30.3-42.5v42.5H95.6zm-26.3 20h56.5v23.33H69.3zm60.8 0h9.5v23.33h-9.5zm13.7 0h42.9v23.33h-42.9zm44.3-20h-58V80.9a62.5 62.5 0 0 1 58 46.9zM57.4 132h141.3v11.56H57.4z"/><path d="M128 0L17.2 64v128L128 256l110.9-64V64zm90.6 147.8h-27.7v25.4a2 2 0 0 1-2.1 2.1H67.2a2 2 0 0 1-2.1-2.1v-25.4H37.4a2.1 2.1 0 0 1 0-4.2h15.8v-13.7a2 2 0 0 1 2.1-2.1h8.2a66.6 66.6 0 0 1 64.3-51.1c.2-.2.4-.2.8 0 31.1.2 57 22.1 63.9 51.1h8.2a2 2 0 0 1 2.1 2.1v13.7h15.8a2.1 2.1 0 0 1 0 4.2z"/></symbol><symbol id="space-bubbles" viewBox="0 0 256 256"><path d="M103.4 157.2l-35.5 18.7-3-4.2 18.5-21.8h13.9l6.1 7.3zm2.9 3.4l8.7 10.5H86.4l19.9-10.5zm46.9-10.7l-17.6 21.2h-15.2l-17.6-21.2h50.4zm-3.5 10.7l19.9 10.5H141l8.7-10.5zm-63.5-30.1c-2.1-4.8-2.5-10.5-2.5-16a45.5 45.5 0 0 1 91 0 50.9 50.9 0 0 1-2.5 16zm-14.5 4.2h115v10.93h-115zm100.9 15.2l18.5 22-3 4-35.7-18.7 6.3-7.3h13.9z"/><path d="M128 0L17.2 64v128L128 256l110.8-64V64zm67.3 173l-4.8 6.9a2.2 2.2 0 0 1-2.7.6l-10.1-5.2H78.2l-10.1 5.3a2.3 2.3 0 0 1-2.7-.6l-4.9-7a2.2 2.2 0 0 1 .2-2.5l17.4-20.6h-8.5a2 2 0 0 1-2.1-2.1v-15.2a2 2 0 0 1 2.1-2.1h12.2a58.8 58.8 0 0 1-2.3-16 49.7 49.7 0 0 1 99.4 0 51.7 51.7 0 0 1-2.3 16h12.2a2 2 0 0 1 2.1 2.1v15.1a2 2 0 0 1-2.1 2.1H178l17.2 20.6a2.2 2.2 0 0 1 .1 2.6z"/></symbol><symbol id="super-domes" viewBox="0 0 256 256"><path d="M78.4 157.8h13.5v13.24H78.4zm17.6 0h21v13.24H96zm25.3 0h13.4v13.24h-13.4zm17.6 0h21v13.24h-21zm35.4-45.6H81.8c1.1-27.1 21.7-42 46.3-42s45.1 14.9 46.2 42zm-10.1 45.6h13.5v13.24h-13.5z"/><path d="M128 0L17.2 64v128L128 256l110.8-64V64zm66.4 155.7a2 2 0 0 1-2.1 2.1h-10.5V171h10.5a2.1 2.1 0 1 1 0 4.2H63.7a2.1 2.1 0 0 1 0-4.2h10.5v-13.2H63.7a2 2 0 0 1-2.1-2.1v-41.4a2 2 0 0 1 2.1-2.1h13.8C78.6 82.4 100.9 66 128 66s49.4 16.4 50.4 46.3h13.9a2 2 0 0 1 2.1 2.1z"/><path d="M65.8 116.4v37.2h124.4v-37.2zm112.5 27.1h-51.4a2.1 2.1 0 1 1 0-4.2h51.3a2.1 2.1 0 1 1 0 4.2z"/></symbol></svg>